<svg width="25" height="25" viewBox="0 0 25 25" fill="none" xmlns="http://www.w3.org/2000/svg">
<g clip-path="url(#clip0_970_177)">
<path d="M24 0H1C0.447715 0 0 0.447715 0 1V24C0 24.5523 0.447715 25 1 25H24C24.5523 25 25 24.5523 25 24V1C25 0.447715 24.5523 0 24 0Z" fill="#3E5081"/>
<path d="M20.5885 15.8118L21.1864 12.013H17.5035V9.54381C17.5035 8.50509 18.0176 7.49011 19.6618 7.49011H21.3598V4.25523C20.371 4.09755 19.3718 4.01224 18.3704 4C15.3391 4 13.3601 5.82222 13.3601 9.11645V12.013H10V15.8118H13.3601V25H17.5035V15.8118H20.5885Z" fill="white"/>
</g>
<defs>
<clipPath id="clip0_970_177">
<rect width="25" height="25" fill="white"/>
</clipPath>
</defs>
</svg>
