<svg width="25" height="25" viewBox="0 0 25 25" fill="none" xmlns="http://www.w3.org/2000/svg">
<g clip-path="url(#clip0_970_190)">
<path d="M25 21V4C25 1.79086 23.2091 0 21 0L4 0C1.79086 0 0 1.79086 0 4V21C0 23.2091 1.79086 25 4 25H21C23.2091 25 25 23.2091 25 21Z" fill="url(#paint0_linear_970_190)"/>
<path d="M9.25442 12.5516C9.25442 10.7552 10.7099 9.29849 12.5058 9.29849C14.3018 9.29849 15.7581 10.7552 15.7581 12.5516C15.7581 14.3481 14.3018 15.8048 12.5058 15.8048C10.7099 15.8048 9.25442 14.3481 9.25442 12.5516ZM7.49634 12.5516C7.49634 15.3192 9.73909 17.5626 12.5058 17.5626C15.2726 17.5626 17.5154 15.3192 17.5154 12.5516C17.5154 9.78408 15.2726 7.54068 12.5058 7.54068C9.73909 7.54068 7.49634 9.78408 7.49634 12.5516ZM16.543 7.34199C16.5429 7.5736 16.6115 7.80004 16.74 7.99266C16.8686 8.18529 17.0514 8.33546 17.2652 8.42418C17.4791 8.5129 17.7145 8.53618 17.9416 8.49109C18.1687 8.446 18.3774 8.33455 18.5412 8.17084C18.705 8.00713 18.8165 7.79852 18.8618 7.57138C18.9071 7.34424 18.884 7.10877 18.7954 6.89475C18.7069 6.68074 18.5569 6.49779 18.3645 6.36904C18.172 6.24028 17.9457 6.17151 17.7141 6.17142H17.7137C17.4033 6.17156 17.1057 6.29492 16.8862 6.5144C16.6667 6.73388 16.5432 7.03154 16.543 7.34199ZM8.56449 20.495C7.61333 20.4516 7.09635 20.2931 6.75279 20.1593C6.29731 19.9819 5.97232 19.7706 5.63063 19.4293C5.28894 19.088 5.07743 18.7632 4.90089 18.3076C4.76696 17.9641 4.60853 17.4468 4.56529 16.4954C4.51799 15.4667 4.50855 15.1577 4.50855 12.5517C4.50855 9.94568 4.51877 9.63754 4.56529 8.60804C4.60861 7.65661 4.76821 7.14034 4.90089 6.79582C5.07821 6.3402 5.28941 6.01512 5.63063 5.67334C5.97185 5.33155 6.29652 5.11998 6.75279 4.94339C7.09619 4.80942 7.61333 4.65094 8.56449 4.60769C9.59283 4.56038 9.90174 4.55093 12.5058 4.55093C15.11 4.55093 15.4192 4.56116 16.4484 4.60769C17.3995 4.65102 17.9157 4.81067 18.2601 4.94339C18.7156 5.11998 19.0406 5.33202 19.3822 5.67334C19.7239 6.01466 19.9347 6.3402 20.112 6.79582C20.2459 7.13932 20.4043 7.65661 20.4476 8.60804C20.4949 9.63754 20.5043 9.94568 20.5043 12.5517C20.5043 15.1577 20.4949 15.4659 20.4476 16.4954C20.4043 17.4468 20.2451 17.9639 20.112 18.3076C19.9347 18.7632 19.7235 19.0883 19.3822 19.4293C19.041 19.7703 18.7156 19.9819 18.2601 20.1593C17.9167 20.2932 17.3995 20.4517 16.4484 20.495C15.42 20.5423 15.1111 20.5517 12.5058 20.5517C9.90057 20.5517 9.59252 20.5423 8.56449 20.495ZM8.48371 2.85207C7.44514 2.89938 6.73546 3.0641 6.11569 3.30534C5.47383 3.55446 4.93047 3.88867 4.3875 4.43094C3.84453 4.97321 3.51127 5.51759 3.26222 6.15963C3.02106 6.77997 2.85638 7.48946 2.80908 8.52833C2.761 9.56884 2.75 9.90149 2.75 12.5516C2.75 15.2018 2.761 15.5344 2.80908 16.5749C2.85638 17.6139 3.02106 18.3233 3.26222 18.9436C3.51127 19.5853 3.84461 20.1303 4.3875 20.6723C4.93039 21.2144 5.47383 21.5481 6.11569 21.7979C6.73663 22.0392 7.44514 22.2039 8.48371 22.2512C9.52446 22.2985 9.85647 22.3103 12.5058 22.3103C15.1552 22.3103 15.4878 22.2993 16.528 22.2512C17.5666 22.2039 18.2759 22.0392 18.896 21.7979C19.5375 21.5481 20.0812 21.2146 20.6242 20.6723C21.1672 20.1301 21.4997 19.5853 21.7495 18.9436C21.9906 18.3233 22.1561 17.6138 22.2026 16.5749C22.2499 15.5336 22.2609 15.2018 22.2609 12.5516C22.2609 9.90149 22.2499 9.56884 22.2026 8.52833C22.1553 7.48939 21.9906 6.77958 21.7495 6.15963C21.4997 5.51798 21.1663 4.97407 20.6242 4.43094C20.0821 3.88781 19.5375 3.55446 18.8968 3.30534C18.2759 3.0641 17.5666 2.8986 16.5288 2.85207C15.4886 2.80476 15.156 2.79297 12.5066 2.79297C9.85725 2.79297 9.52446 2.80398 8.48371 2.85207Z" fill="white"/>
</g>
<defs>
<linearGradient id="paint0_linear_970_190" x1="0" y1="24.5195" x2="25" y2="-0.4805" gradientUnits="userSpaceOnUse">
<stop stop-color="#FBE18A"/>
<stop offset="0.21" stop-color="#FCBB45"/>
<stop offset="0.38" stop-color="#F75274"/>
<stop offset="0.52" stop-color="#D53692"/>
<stop offset="0.74" stop-color="#8F39CE"/>
<stop offset="1" stop-color="#5B4FE9"/>
</linearGradient>
<clipPath id="clip0_970_190">
<rect width="25" height="25" fill="white"/>
</clipPath>
</defs>
</svg>
