<svg width="25" height="25" viewBox="0 0 25 25" fill="none" xmlns="http://www.w3.org/2000/svg">
<g clip-path="url(#clip0_970_180)">
<path d="M12.5 25C19.4036 25 25 19.4036 25 12.5C25 5.59644 19.4036 0 12.5 0C5.59644 0 0 5.59644 0 12.5C0 19.4036 5.59644 25 12.5 25Z" fill="url(#paint0_linear_970_180)"/>
<path d="M10.2077 18.2318C9.80268 18.2318 9.87154 18.0789 9.73185 17.6932L8.54102 13.7742L17.7077 8.33594" fill="#CBD9E8"/>
<path d="M10.209 18.2297C10.5215 18.2297 10.6595 18.0868 10.834 17.9172L12.5007 16.2966L10.4217 15.043" fill="#AFC9DE"/>
<path d="M10.4208 15.0435L15.4583 18.7653C16.0332 19.0825 16.448 18.9182 16.5913 18.2316L18.6418 8.5688C18.8517 7.72714 18.3209 7.34526 17.7709 7.59495L5.73032 12.2378C4.90845 12.5675 4.91334 13.026 5.58053 13.2303L8.67043 14.1947L15.8239 9.68172C16.1616 9.47693 16.4716 9.58693 16.2172 9.81276" fill="white"/>
</g>
<defs>
<linearGradient id="paint0_linear_970_180" x1="12.5" y1="0" x2="12.5" y2="24.8146" gradientUnits="userSpaceOnUse">
<stop stop-color="#2AABEE"/>
<stop offset="1" stop-color="#229ED9"/>
</linearGradient>
<clipPath id="clip0_970_180">
<rect width="25" height="25" fill="white"/>
</clipPath>
</defs>
</svg>
