<svg width="27" height="25" viewBox="0 0 27 25" fill="none" xmlns="http://www.w3.org/2000/svg">
<path d="M26.0158 6.31045C25.7221 5.20591 24.8529 4.33455 23.7471 4.03591C21.7476 3.5 13.7254 3.5 13.7254 3.5C13.7254 3.5 5.70722 3.5 3.70369 4.03591C2.60196 4.33045 1.73281 5.20182 1.43494 6.31045C0.900391 8.315 0.900391 12.5 0.900391 12.5C0.900391 12.5 0.900391 16.685 1.43494 18.6895C1.72873 19.7941 2.59788 20.6655 3.70369 20.9641C5.70722 21.5 13.7254 21.5 13.7254 21.5C13.7254 21.5 21.7476 21.5 23.7471 20.9641C24.8488 20.6695 25.718 19.7982 26.0158 18.6895C26.5504 16.685 26.5504 12.5 26.5504 12.5C26.5504 12.5 26.5504 8.315 26.0158 6.31045Z" fill="#C73934"/>
<path d="M11.1626 16.3578L17.8261 12.5001L11.1626 8.64233V16.3578Z" fill="white"/>
</svg>
