<svg width="29" height="18" viewBox="0 0 29 18" fill="none" xmlns="http://www.w3.org/2000/svg">
<path fill-rule="evenodd" clip-rule="evenodd" d="M14.5 15.85C12.9642 17.1907 10.972 18 8.79508 18C3.93769 18 0 13.9706 0 9C0 4.02944 3.93769 0 8.79508 0C10.972 0 12.9642 0.809324 14.5 2.14998C16.0358 0.809324 18.028 0 20.2049 0C25.0623 0 29 4.02944 29 9C29 13.9706 25.0623 18 20.2049 18C18.028 18 16.0358 17.1907 14.5 15.85Z" fill="#ED0006"/>
<path fill-rule="evenodd" clip-rule="evenodd" d="M14.5 15.85C16.3911 14.1993 17.5902 11.7429 17.5902 9C17.5902 6.25708 16.3911 3.80074 14.5 2.14998C16.0358 0.809324 18.028 0 20.2049 0C25.0623 0 29 4.02944 29 9C29 13.9706 25.0623 18 20.2049 18C18.028 18 16.0358 17.1907 14.5 15.85Z" fill="#F9A000"/>
<path fill-rule="evenodd" clip-rule="evenodd" d="M14.5 15.8499C16.3911 14.1991 17.5902 11.7428 17.5902 8.99989C17.5902 6.25699 16.3911 3.80067 14.5 2.1499C12.609 3.80067 11.4099 6.25699 11.4099 8.99989C11.4099 11.7428 12.609 14.1991 14.5 15.8499Z" fill="#FF5E00"/>
</svg>
