<svg width="43" height="22" viewBox="0 0 43 22" fill="none" xmlns="http://www.w3.org/2000/svg">
<g clip-path="url(#clip0_970_221)">
<path d="M39.8382 0H3.16176C1.41557 0 0 1.44849 0 3.23529V18.7647C0 20.5515 1.41557 22 3.16176 22H39.8382C41.5844 22 43 20.5515 43 18.7647V3.23529C43 1.44849 41.5844 0 39.8382 0Z" fill="#F4F4F6"/>
<path d="M29.6242 13.2615H28.8623V8.81689H30.7703C31.2088 8.81689 31.5538 8.95019 31.8057 9.2167C32.0618 9.48328 32.19 9.81417 32.19 10.2096C32.19 10.6005 32.0618 10.9315 31.8057 11.2024C31.5538 11.4689 31.2088 11.6022 30.7703 11.6022H29.6242V13.2615ZM30.6662 10.9159C30.8831 10.9159 31.0612 10.8515 31.2 10.7226C31.339 10.5938 31.4085 10.4228 31.4085 10.2096C31.4085 9.99632 31.339 9.82534 31.2 9.69649C31.0612 9.56764 30.8831 9.50326 30.6662 9.50326H29.6242V10.9159H30.6662Z" fill="#6638DD"/>
<path d="M35.2824 13.2618H34.5987V12.9153C34.3556 13.1996 34.017 13.3418 33.5828 13.3418C33.2964 13.3418 33.0424 13.2485 32.8209 13.0619C32.5995 12.8709 32.4888 12.6088 32.4888 12.2756C32.4888 11.9336 32.5974 11.6737 32.8144 11.496C33.0358 11.3183 33.2919 11.2294 33.5828 11.2294C34.03 11.2294 34.3687 11.3672 34.5987 11.6426V11.1628C34.5987 10.9763 34.5314 10.8296 34.3969 10.723C34.2623 10.6164 34.0842 10.5631 33.8629 10.5631C33.5112 10.5631 33.2008 10.6986 32.9317 10.9696L32.6516 10.4831C33.0076 10.1366 33.4482 9.96338 33.9736 9.96338C34.36 9.96338 34.6747 10.0567 34.9179 10.2432C35.1609 10.4298 35.2824 10.7253 35.2824 11.1295V13.2618ZM33.8498 12.862C34.1928 12.862 34.4424 12.7509 34.5987 12.5288V12.0424C34.4424 11.8203 34.1928 11.7092 33.8498 11.7092C33.6545 11.7092 33.4939 11.7625 33.368 11.8691C33.2421 11.9757 33.1791 12.1157 33.1791 12.2889C33.1791 12.4622 33.2421 12.6022 33.368 12.7088C33.4939 12.8109 33.6545 12.862 33.8498 12.862Z" fill="#6638DD"/>
<path d="M36.032 14.5208L36.1362 13.8944C36.2143 13.93 36.3011 13.9477 36.3967 13.9477C36.618 13.9477 36.7679 13.8545 36.8461 13.6679L37.0023 13.3014L35.7129 10.043H36.4422L37.3605 12.4551L38.2787 10.043H39.0145L37.4972 13.8411C37.3105 14.3165 36.9502 14.5585 36.4162 14.5674C36.2729 14.5674 36.1449 14.5519 36.032 14.5208Z" fill="#6638DD"/>
<path d="M14.2368 12.0654C13.9657 12.0654 13.7517 11.9681 13.5948 11.7734C13.4379 11.5739 13.3594 11.3282 13.3594 11.0361C13.3594 10.749 13.4379 10.5081 13.5948 10.3134C13.7517 10.1139 13.9657 10.0142 14.2368 10.0142C14.508 10.0142 14.7219 10.1139 14.8789 10.3134C15.0406 10.5081 15.1215 10.749 15.1215 11.0361C15.1215 11.3282 15.0406 11.5739 14.8789 11.7734C14.7219 11.9681 14.508 12.0654 14.2368 12.0654Z" fill="#6638DD"/>
<path d="M22.4645 12.0654C22.1933 12.0654 21.9792 11.9681 21.8224 11.7734C21.6653 11.5739 21.5869 11.3282 21.5869 11.0361C21.5869 10.749 21.6653 10.5081 21.8224 10.3134C21.9792 10.1139 22.1933 10.0142 22.4645 10.0142C22.7355 10.0142 22.9495 10.1139 23.1065 10.3134C23.2682 10.5081 23.349 10.749 23.349 11.0361C23.349 11.3282 23.2682 11.5739 23.1065 11.7734C22.9495 11.9681 22.7355 12.0654 22.4645 12.0654Z" fill="#6638DD"/>
<path fill-rule="evenodd" clip-rule="evenodd" d="M6.20193 6.22803C5.00309 6.22803 4.03125 7.22247 4.03125 8.44922V13.6318C4.03125 14.8586 5.0031 15.853 6.20193 15.853H24.6526C25.8515 15.853 26.8234 14.8586 26.8234 13.6318V8.44922C26.8234 7.22247 25.8515 6.22803 24.6526 6.22803H6.20193ZM10.837 12.803H11.7501V10.2553C11.7501 9.90009 11.6622 9.63487 11.4862 9.45968C11.3102 9.27956 11.0606 9.18953 10.7371 9.18953C10.4898 9.18953 10.2568 9.25278 10.038 9.37937C9.824 9.50587 9.66227 9.65671 9.55288 9.83198C9.41495 9.40371 9.09632 9.18953 8.59692 9.18953C8.35915 9.18953 8.13324 9.25036 7.91919 9.37209C7.70516 9.48888 7.55536 9.61053 7.46975 9.73703V9.27713H6.56373V12.803H7.46975V10.4305C7.54585 10.3186 7.6481 10.2213 7.77652 10.1385C7.90497 10.0558 8.04045 10.0145 8.18312 10.0145C8.52562 10.0145 8.69683 10.2018 8.69683 10.5765V12.803H9.60995V10.4232C9.68607 10.3161 9.7859 10.2213 9.9096 10.1385C10.038 10.0558 10.1759 10.0145 10.3233 10.0145C10.6658 10.0145 10.837 10.2018 10.837 10.5765V12.803ZM14.2368 12.8906C14.7885 12.8906 15.2308 12.713 15.5637 12.3577C15.8966 11.9976 16.0631 11.5571 16.0631 11.0365C16.0631 10.5157 15.8966 10.0777 15.5637 9.72247C15.2308 9.36715 14.7885 9.18953 14.2368 9.18953C13.6851 9.18953 13.2428 9.36715 12.9099 9.72247C12.5817 10.0777 12.4176 10.5157 12.4176 11.0365C12.4176 11.5571 12.5817 11.9976 12.9099 12.3577C13.2428 12.713 13.6851 12.8906 14.2368 12.8906ZM19.9669 12.803H19.0609V10.6715C19.0609 10.2334 18.8493 10.0145 18.4261 10.0145C18.0979 10.0145 17.8363 10.1532 17.6413 10.4305V12.803H16.7352V9.27713H17.6413V9.73703C17.9409 9.37209 18.3428 9.18953 18.847 9.18953C19.2179 9.18953 19.4962 9.28934 19.6816 9.48888C19.8718 9.68842 19.9669 9.96334 19.9669 10.3137V12.803ZM22.4647 12.8906C23.0162 12.8906 23.4586 12.713 23.7915 12.3577C24.1243 11.9976 24.291 11.5571 24.291 11.0365C24.291 10.5157 24.1243 10.0777 23.7915 9.72247C23.4586 9.36715 23.0162 9.18953 22.4647 9.18953C21.9128 9.18953 21.4706 9.36715 21.1377 9.72247C20.8095 10.0777 20.6455 10.5157 20.6455 11.0365C20.6455 11.5571 20.8095 11.9976 21.1377 12.3577C21.4706 12.713 21.9128 12.8906 22.4647 12.8906Z" fill="#6638DD"/>
</g>
<defs>
<clipPath id="clip0_970_221">
<rect width="43" height="22" fill="white"/>
</clipPath>
</defs>
</svg>
