<svg width="44" height="15" viewBox="0 0 44 15" fill="none" xmlns="http://www.w3.org/2000/svg">
<path fill-rule="evenodd" clip-rule="evenodd" d="M11.0005 14.766H7.19254L4.33706 3.90515C4.20153 3.40555 3.91375 2.96388 3.49044 2.75571C2.43403 2.23258 1.26993 1.81625 0 1.60628V1.18814H6.13427C6.98088 1.18814 7.61585 1.81625 7.72167 2.54574L9.20326 10.38L13.0093 1.18814H16.7114L11.0005 14.766ZM18.828 14.766H15.2317L18.193 1.18814H21.7893L18.828 14.766ZM26.442 4.94961C26.5478 4.21832 27.1828 3.80018 27.9235 3.80018C29.0876 3.69519 30.3557 3.90516 31.414 4.42648L32.049 1.50312C30.9907 1.08498 29.8266 0.875 28.7702 0.875C25.2797 0.875 22.7399 2.75573 22.7399 5.36594C22.7399 7.35166 24.5389 8.39429 25.8089 9.02241C27.1828 9.64872 27.7119 10.0669 27.6061 10.6932C27.6061 11.6326 26.5478 12.0508 25.4914 12.0508C24.2214 12.0508 22.9515 11.7376 21.7893 11.2145L21.1543 14.1397C22.4242 14.661 23.7981 14.871 25.0681 14.871C28.9818 14.9741 31.414 13.0952 31.414 10.275C31.414 6.72354 26.442 6.51538 26.442 4.94961ZM44 14.766L41.1445 1.18814H38.0774C37.4424 1.18814 36.8075 1.60628 36.5958 2.23258L31.3082 14.766H35.0103L35.7492 12.782H40.2979L40.7212 14.766H44ZM38.6065 4.8446L39.6629 9.96185H36.7016L38.6065 4.8446Z" fill="white"/>
</svg>
