<svg width="30" height="24" fill="none" xmlns="http://www.w3.org/2000/svg"><path fill-rule="evenodd" clip-rule="evenodd" d="M25.015 3.348a3.293 3.293 0 012.319 2.325c.546 2.05.546 6.327.546 6.327s0 4.278-.546 6.327a3.293 3.293 0 01-2.32 2.325c-2.043.548-10.244.548-10.244.548s-8.196 0-10.244-.548a3.293 3.293 0 01-2.32-2.325C1.66 16.278 1.66 12 1.66 12s0-4.278.547-6.327a3.293 3.293 0 012.319-2.325C6.574 2.8 14.77 2.8 14.77 2.8s8.2 0 10.245.548zM18.962 12l-6.811 3.944V8.056L18.962 12z" fill="#FF3000"/></svg>