<svg width="38" height="28" viewBox="0 0 38 28" fill="none" xmlns="http://www.w3.org/2000/svg">
<path d="M13.4198 27.1233C13.0806 27.1237 12.7445 27.057 12.4311 26.9271C12.1177 26.7972 11.833 26.6067 11.5934 26.3664L1.67343 16.4464C1.42669 16.2081 1.22989 15.9231 1.0945 15.6079C0.959108 15.2927 0.887844 14.9537 0.884863 14.6107C0.881882 14.2677 0.947245 13.9275 1.07714 13.61C1.20703 13.2926 1.39885 13.0041 1.64141 12.7616C1.88396 12.519 2.1724 12.3272 2.48988 12.1973C2.80736 12.0674 3.14753 12.002 3.49055 12.005C3.83356 12.008 4.17254 12.0793 4.48772 12.2147C4.8029 12.3501 5.08795 12.5469 5.32626 12.7936L13.4198 20.8872L32.6734 1.63359C33.1606 1.16301 33.8132 0.902628 34.4905 0.908514C35.1679 0.9144 35.8158 1.18609 36.2948 1.66506C36.7738 2.14403 37.0454 2.79196 37.0513 3.4693C37.0572 4.14664 36.7968 4.7992 36.3263 5.28642L15.2463 26.3664C15.0067 26.6067 14.722 26.7972 14.4086 26.9271C14.0951 27.057 13.7591 27.1237 13.4198 27.1233Z" fill="black"/>
</svg>
