<svg width="28" height="21" viewBox="0 0 28 21" fill="none" xmlns="http://www.w3.org/2000/svg">
<path d="M16.1152 20.4821V12.4091C16.1152 8.68308 16.9922 5.92308 18.746 4.12908C20.4999 2.28908 23.1768 1.23108 26.7768 0.955078L27.6768 4.54308C23.7076 5.23308 21.7229 7.16508 21.7229 10.3391V10.9601H25.3229V20.4821H16.1152ZM0.0537109 20.4821V12.4091C0.0537109 8.68308 0.930634 5.92308 2.68448 4.12908C4.43833 2.28908 7.11525 1.23108 10.7152 0.955078L11.6152 4.54308C7.64602 5.23308 5.6614 7.11908 5.6614 10.2011C5.6614 10.2931 5.6614 10.4311 5.6614 10.6151C5.70756 10.7531 5.73063 10.8681 5.73063 10.9601H9.2614V20.4821H0.0537109Z" fill="black"/>
</svg>
