<svg width="30" height="24" viewBox="0 0 30 24" fill="none" xmlns="http://www.w3.org/2000/svg">
<path fill-rule="evenodd" clip-rule="evenodd" d="M25.0146 3.34787C26.145 3.65314 27.0334 4.54387 27.3337 5.67296C27.8802 7.72205 27.8802 12 27.8802 12C27.8802 12 27.8802 16.278 27.3337 18.3271C27.0292 19.4604 26.1408 20.3511 25.0146 20.6522C22.9707 21.2 14.7702 21.2 14.7702 21.2C14.7702 21.2 6.5738 21.2 4.52575 20.6522C3.39536 20.347 2.5069 19.4562 2.20658 18.3271C1.66016 16.278 1.66016 12 1.66016 12C1.66016 12 1.66016 7.72205 2.20658 5.67296C2.51108 4.53969 3.39954 3.64896 4.52575 3.34787C6.5738 2.80005 14.7702 2.80005 14.7702 2.80005C14.7702 2.80005 22.9707 2.80005 25.0146 3.34787ZM18.9622 12.0001L12.1507 15.9435V8.0566L18.9622 12.0001Z" fill="#FF3000"/>
</svg>
