<svg width="29" height="18" fill="none" xmlns="http://www.w3.org/2000/svg"><path fill-rule="evenodd" clip-rule="evenodd" d="M14.5 15.85A8.643 8.643 0 018.795 18C3.938 18 0 13.97 0 9s3.938-9 8.795-9c2.177 0 4.17.81 5.705 2.15A8.643 8.643 0 0120.205 0C25.062 0 29 4.03 29 9s-3.938 9-8.795 9c-2.177 0-4.17-.81-5.705-2.15z" fill="#ED0006"/><path fill-rule="evenodd" clip-rule="evenodd" d="M14.5 15.85A9.067 9.067 0 0017.59 9c0-2.743-1.199-5.2-3.09-6.85A8.643 8.643 0 0120.205 0C25.062 0 29 4.03 29 9s-3.938 9-8.795 9c-2.177 0-4.17-.81-5.705-2.15z" fill="#F9A000"/><path fill-rule="evenodd" clip-rule="evenodd" d="M14.5 15.85A9.067 9.067 0 0017.59 9c0-2.743-1.199-5.2-3.09-6.85A9.067 9.067 0 0011.41 9c0 2.743 1.199 5.2 3.09 6.85z" fill="#FF5E00"/></svg>