<svg width="43" height="22" fill="none" xmlns="http://www.w3.org/2000/svg"><g clip-path="url(#clip0_970_221)"><path d="M39.838 0H3.162C1.416 0 0 1.448 0 3.235v15.53C0 20.552 1.416 22 3.162 22h36.676C41.584 22 43 20.552 43 18.765V3.235C43 1.448 41.584 0 39.838 0z" fill="#F4F4F6"/><path d="M29.624 13.261h-.762V8.817h1.908c.439 0 .784.133 1.036.4.256.266.384.597.384.993 0 .39-.128.721-.384.992-.252.267-.597.4-1.036.4h-1.146v1.66zm1.042-2.345a.754.754 0 00.534-.193.666.666 0 00.209-.513.666.666 0 00-.209-.514.754.754 0 00-.534-.193h-1.042v1.413h1.042zm4.616 2.346H34.6v-.347c-.243.285-.582.427-1.016.427-.287 0-.54-.094-.762-.28-.221-.191-.332-.453-.332-.786 0-.342.108-.602.325-.78.222-.178.478-.267.769-.267.447 0 .786.138 1.016.414v-.48a.53.53 0 00-.202-.44c-.135-.107-.313-.16-.534-.16-.352 0-.662.136-.931.407l-.28-.487c.356-.346.796-.52 1.322-.52.386 0 .7.094.944.28.243.187.364.482.364.886v2.133zm-1.432-.4c.343 0 .592-.111.749-.333v-.487c-.157-.222-.406-.333-.75-.333a.72.72 0 00-.481.16.524.524 0 00-.189.42c0 .173.063.313.189.42a.74.74 0 00.482.153zm2.182 1.658l.104-.626a.62.62 0 00.26.054c.222 0 .372-.094.45-.28l.156-.367-1.29-3.258h.73l.919 2.412.918-2.412h.735l-1.517 3.798c-.187.476-.547.718-1.08.726-.144 0-.272-.015-.385-.046zm-21.795-2.455a.78.78 0 01-.642-.292 1.156 1.156 0 01-.236-.737c0-.287.079-.528.236-.723a.77.77 0 01.642-.299c.271 0 .485.1.642.3.162.194.242.435.242.722 0 .292-.08.538-.242.737a.78.78 0 01-.642.292zm8.228 0a.78.78 0 01-.643-.292 1.155 1.155 0 01-.235-.737c0-.287.078-.528.235-.723a.772.772 0 01.643-.299c.27 0 .485.1.642.3.161.194.242.435.242.722 0 .292-.08.538-.242.737a.78.78 0 01-.642.292z" fill="#6638DD"/><path fill-rule="evenodd" clip-rule="evenodd" d="M6.202 6.228c-1.199 0-2.17.994-2.17 2.221v5.183c0 1.227.971 2.221 2.17 2.221h18.45c1.2 0 2.171-.994 2.171-2.221V8.449c0-1.227-.971-2.221-2.17-2.221H6.202zm4.635 6.575h.913v-2.548c0-.355-.088-.62-.264-.795-.176-.18-.425-.27-.749-.27-.247 0-.48.063-.699.19a1.388 1.388 0 00-.485.452c-.138-.428-.457-.642-.956-.642-.238 0-.464.06-.678.182-.214.117-.364.239-.45.365v-.46h-.905v3.526h.906V10.43c.076-.111.178-.209.307-.291a.739.739 0 01.406-.124c.343 0 .514.187.514.561v2.227h.913v-2.38a1.12 1.12 0 01.3-.284.75.75 0 01.413-.124c.343 0 .514.187.514.561v2.227zm3.4.088c.552 0 .994-.178 1.327-.533.333-.36.5-.8.5-1.322 0-.52-.167-.958-.5-1.314-.333-.355-.775-.532-1.327-.532-.552 0-.994.177-1.327.532-.328.356-.492.794-.492 1.315 0 .52.164.96.492 1.32.333.356.775.534 1.327.534zm5.73-.088h-.906v-2.132c0-.438-.212-.656-.635-.656a.913.913 0 00-.785.415v2.373h-.906V9.277h.906v.46c.3-.365.702-.547 1.206-.547.37 0 .65.1.835.299.19.2.285.474.285.825v2.489zm2.498.088c.551 0 .994-.178 1.326-.533.333-.36.5-.8.5-1.322 0-.52-.167-.958-.5-1.314-.332-.355-.775-.532-1.326-.532-.552 0-.994.177-1.327.532-.329.356-.493.794-.493 1.315 0 .52.165.96.493 1.32.333.356.775.534 1.327.534z" fill="#6638DD"/></g><defs><clipPath id="clip0_970_221"><path fill="#fff" d="M0 0h43v22H0z"/></clipPath></defs></svg>