<svg width="44" height="15" fill="none" xmlns="http://www.w3.org/2000/svg"><path fill-rule="evenodd" clip-rule="evenodd" d="M11 14.766H7.194L4.337 3.906c-.135-.5-.423-.942-.847-1.15A12.421 12.421 0 000 1.606v-.418h6.134c.847 0 1.482.628 1.588 1.358l1.481 7.834 3.806-9.192h3.702l-5.71 13.578zm7.828 0h-3.596l2.961-13.578h3.596l-2.961 13.578zm7.614-9.816c.106-.732.74-1.15 1.482-1.15 1.164-.105 2.432.105 3.49.626l.635-2.923A9.128 9.128 0 0028.77.875c-3.49 0-6.03 1.88-6.03 4.49 0 1.987 1.799 3.03 3.069 3.657 1.374.627 1.903 1.045 1.797 1.671 0 .94-1.058 1.358-2.115 1.358-1.27 0-2.54-.313-3.702-.837l-.635 2.926c1.27.521 2.644.731 3.914.731 3.914.103 6.346-1.776 6.346-4.596 0-3.551-4.972-3.76-4.972-5.325zM44 14.766L41.145 1.188h-3.068c-.635 0-1.27.418-1.481 1.045l-5.288 12.533h3.702l.74-1.984h4.548l.423 1.984H44zm-5.394-9.921l1.057 5.117h-2.961l1.904-5.117z" fill="#fff"/></svg>