<svg width="25" height="25" fill="none" xmlns="http://www.w3.org/2000/svg"><g clip-path="url(#clip0_970_177)"><path d="M24 0H1a1 1 0 00-1 1v23a1 1 0 001 1h23a1 1 0 001-1V1a1 1 0 00-1-1z" fill="#3E5081"/><path d="M20.588 15.812l.598-3.799h-3.683v-2.47c0-1.038.515-2.053 2.159-2.053h1.698V4.255A20.581 20.581 0 0018.37 4c-3.03 0-5.01 1.822-5.01 5.116v2.897H10v3.799h3.36V25h4.143v-9.188h3.085z" fill="#fff"/></g><defs><clipPath id="clip0_970_177"><path fill="#fff" d="M0 0h25v25H0z"/></clipPath></defs></svg>