<svg width="25" height="25" fill="none" xmlns="http://www.w3.org/2000/svg"><g clip-path="url(#clip0_970_190)"><path d="M25 21V4a4 4 0 00-4-4H4a4 4 0 00-4 4v17a4 4 0 004 4h17a4 4 0 004-4z" fill="url(#paint0_linear_970_190)"/><path d="M9.254 12.552a3.252 3.252 0 113.252 3.253 3.252 3.252 0 01-3.252-3.253zm-1.758 0a5.01 5.01 0 105.01-5.011 5.01 5.01 0 00-5.01 5.01zm9.047-5.21a1.172 1.172 0 101.171-1.17 1.171 1.171 0 00-1.171 1.17zM8.564 20.495c-.95-.043-1.468-.202-1.811-.336a3.033 3.033 0 01-1.122-.73 3.01 3.01 0 01-.73-1.121c-.134-.344-.292-.861-.336-1.813-.047-1.028-.056-1.337-.056-3.943s.01-2.914.056-3.944c.044-.951.203-1.468.336-1.812.177-.456.388-.78.73-1.123a3.006 3.006 0 011.122-.73c.343-.134.86-.292 1.811-.335 1.029-.048 1.338-.057 3.942-.057s2.913.01 3.942.057c.951.043 1.468.203 1.812.335.456.177.78.389 1.122.73.342.342.553.667.73 1.123.134.343.292.86.336 1.812.047 1.03.056 1.338.056 3.944s-.01 2.914-.056 3.943c-.044.952-.203 1.469-.336 1.813-.177.455-.388.78-.73 1.121a3.032 3.032 0 01-1.122.73c-.343.134-.86.293-1.812.336-1.028.047-1.337.057-3.942.057-2.605 0-2.913-.01-3.942-.057zm-.08-17.643c-1.039.047-1.749.212-2.368.453a4.785 4.785 0 00-1.728 1.126A4.768 4.768 0 003.262 6.16c-.24.62-.406 1.33-.453 2.368-.048 1.04-.059 1.373-.059 4.024 0 2.65.011 2.982.06 4.023.046 1.039.211 1.748.452 2.369a4.77 4.77 0 001.126 1.728 4.795 4.795 0 001.728 1.126c.62.241 1.33.406 2.368.453 1.04.047 1.372.06 4.022.06 2.65 0 2.982-.012 4.022-.06 1.039-.047 1.748-.212 2.368-.453a4.797 4.797 0 001.728-1.126 4.78 4.78 0 001.126-1.728c.24-.62.406-1.33.453-2.37.047-1.04.058-1.372.058-4.022 0-2.65-.011-2.983-.058-4.024-.048-1.039-.212-1.748-.453-2.368a4.8 4.8 0 00-1.126-1.73 4.773 4.773 0 00-1.727-1.125c-.621-.24-1.33-.406-2.368-.453-1.04-.047-1.373-.059-4.022-.059-2.65 0-2.983.011-4.023.06z" fill="#fff"/></g><defs><linearGradient id="paint0_linear_970_190" x1="0" y1="24.52" x2="25" y2="-.48" gradientUnits="userSpaceOnUse"><stop stop-color="#FBE18A"/><stop offset=".21" stop-color="#FCBB45"/><stop offset=".38" stop-color="#F75274"/><stop offset=".52" stop-color="#D53692"/><stop offset=".74" stop-color="#8F39CE"/><stop offset="1" stop-color="#5B4FE9"/></linearGradient><clipPath id="clip0_970_190"><path fill="#fff" d="M0 0h25v25H0z"/></clipPath></defs></svg>