<svg width="25" height="25" fill="none" xmlns="http://www.w3.org/2000/svg"><g clip-path="url(#clip0_970_180)"><path d="M12.5 25C19.404 25 25 19.404 25 12.5S19.404 0 12.5 0 0 5.596 0 12.5 5.596 25 12.5 25z" fill="url(#paint0_linear_970_180)"/><path d="M10.208 18.232c-.405 0-.336-.153-.476-.539L8.54 13.774l9.167-5.438" fill="#CBD9E8"/><path d="M10.209 18.23c.313 0 .45-.143.625-.313l1.667-1.62-2.08-1.254" fill="#AFC9DE"/><path d="M10.42 15.043l5.038 3.722c.575.317.99.153 1.133-.533l2.05-9.663c.21-.842-.32-1.224-.87-.974L5.73 12.238c-.823.33-.818.788-.15.992l3.09.965 7.153-4.513c.338-.205.648-.095.393.13" fill="#fff"/></g><defs><linearGradient id="paint0_linear_970_180" x1="12.5" y1="0" x2="12.5" y2="24.815" gradientUnits="userSpaceOnUse"><stop stop-color="#2AABEE"/><stop offset="1" stop-color="#229ED9"/></linearGradient><clipPath id="clip0_970_180"><path fill="#fff" d="M0 0h25v25H0z"/></clipPath></defs></svg>