<svg width="25" height="25" fill="none" xmlns="http://www.w3.org/2000/svg"><g clip-path="url(#clip0_970_187)"><path d="M0 12.5C0 19.404 5.596 25 12.5 25S25 19.404 25 12.5 19.404 0 12.5 0 0 5.596 0 12.5z" fill="#1DA1F2"/><path d="M18.75 8.594c-.469.234-.938.312-1.484.39.547-.312.937-.78 1.093-1.406-.468.313-1.015.469-1.64.625a2.728 2.728 0 00-1.875-.781c-1.64 0-2.89 1.562-2.5 3.125-2.11-.078-3.985-1.094-5.313-2.656-.703 1.171-.312 2.656.782 3.437-.391 0-.782-.156-1.172-.312 0 1.171.859 2.265 2.03 2.578-.39.078-.78.156-1.171.078a2.531 2.531 0 002.422 1.797c-.938.703-2.344 1.094-3.672.937 1.172.703 2.5 1.172 3.906 1.172 4.766 0 7.422-3.984 7.266-7.656a3.61 3.61 0 001.328-1.328z" fill="#fff"/></g><defs><clipPath id="clip0_970_187"><path fill="#fff" d="M0 0h25v25H0z"/></clipPath></defs></svg>